<svg viewBox="0 0 74 74" fill="none" xmlns="http://www.w3.org/2000/svg">
    <path d="M33.0625 37C33.0625 38.0443 33.4773 39.0458 34.2157 39.7842C34.9542 40.5227 35.9557 40.9375 37 40.9375C38.0443 40.9375 39.0458 40.5227 39.7842 39.7842C40.5226 39.0458 40.9375 38.0443 40.9375 37C40.9375 35.9557 40.5226 34.9542 39.7842 34.2158C39.0458 33.4773 38.0443 33.0625 37 33.0625C35.9557 33.0625 34.9542 33.4773 34.2157 34.2158C33.4773 34.9542 33.0625 35.9557 33.0625 37ZM49.4687 37C49.4687 38.0443 49.8836 39.0458 50.622 39.7842C51.3604 40.5227 52.3619 40.9375 53.4062 40.9375C54.4505 40.9375 55.452 40.5227 56.1904 39.7842C56.9289 39.0458 57.3437 38.0443 57.3437 37C57.3437 35.9557 56.9289 34.9542 56.1904 34.2158C55.452 33.4773 54.4505 33.0625 53.4062 33.0625C52.3619 33.0625 51.3604 33.4773 50.622 34.2158C49.8836 34.9542 49.4687 35.9557 49.4687 37ZM16.6562 37C16.6562 38.0443 17.0711 39.0458 17.8095 39.7842C18.5479 40.5227 19.5494 40.9375 20.5937 40.9375C21.638 40.9375 22.6395 40.5227 23.3779 39.7842C24.1164 39.0458 24.5312 38.0443 24.5312 37C24.5312 35.9557 24.1164 34.9542 23.3779 34.2158C22.6395 33.4773 21.638 33.0625 20.5937 33.0625C19.5494 33.0625 18.5479 33.4773 17.8095 34.2158C17.0711 34.9542 16.6562 35.9557 16.6562 37ZM70.8953 22.7594C69.0414 18.3543 66.3836 14.4004 62.9957 11.0043C59.6315 7.62786 55.6377 4.94401 51.2406 3.10469C46.7289 1.20977 41.9382 0.25 37 0.25H36.8359C31.8648 0.274609 27.0496 1.25898 22.5214 3.19492C18.162 5.0531 14.2056 7.74173 10.873 11.1109C7.51793 14.4988 4.88473 18.4363 3.06363 22.825C1.17692 27.3695 0.225352 32.2012 0.249962 37.1723C0.277797 42.8691 1.62556 48.482 4.18746 53.5703V66.0391C4.18746 67.0398 4.58502 67.9996 5.29268 68.7073C6.00033 69.4149 6.96012 69.8125 7.9609 69.8125H20.4379C25.5262 72.3744 31.1391 73.7222 36.8359 73.75H37.0082C41.9218 73.75 46.6878 72.7984 51.175 70.9363C55.5499 69.1189 59.5287 66.4664 62.889 63.127C66.2769 59.7719 68.9429 55.8508 70.805 51.4785C72.741 46.9504 73.7253 42.1352 73.75 37.1641C73.7746 32.1684 72.8066 27.3203 70.8953 22.7594ZM58.5003 58.6891C52.75 64.382 45.1211 67.5156 37 67.5156H36.8605C31.914 67.491 27.0004 66.2605 22.6609 63.9473L21.9718 63.5781H10.4218V52.0281L10.0527 51.3391C7.73941 46.9996 6.50895 42.0859 6.48434 37.1395C6.45152 28.9609 9.57691 21.2828 15.3109 15.4996C21.0367 9.71641 28.6902 6.51719 36.8687 6.48438H37.0082C41.1097 6.48438 45.0882 7.28008 48.8371 8.85508C52.4957 10.3891 55.7769 12.5957 58.5988 15.4176C61.4125 18.2312 63.6273 21.5207 65.1613 25.1793C66.7527 28.9691 67.5484 32.9887 67.532 37.1395C67.4828 45.3098 64.2753 52.9633 58.5003 58.6891Z" fill="#0578E2"/>
</svg>
