<svg viewBox="0 0 64 64" fill="none" xmlns="http://www.w3.org/2000/svg">
    <path d="M31.165 61.873C31.4355 61.9568 31.7169 61.9996 32 62C32.2763 61.9994 32.5509 61.9579 32.815 61.877C36.8353 60.7249 40.6342 58.9074 44.054 56.5C44.2572 56.342 44.3917 56.1118 44.4294 55.8571C44.4672 55.6025 44.4052 55.3431 44.2566 55.133C44.1079 54.9229 43.8839 54.7781 43.6312 54.729C43.3786 54.6798 43.1166 54.73 42.9 54.869C39.6577 57.1494 36.0562 58.8702 32.245 59.96C32.0792 60.013 31.9009 60.013 31.735 59.96C26.7573 58.547 22.1539 56.05 18.255 52.648C18.158 52.5526 18.0426 52.4779 17.9157 52.4286C17.7889 52.3792 17.6533 52.3563 17.5173 52.3612C17.3813 52.3662 17.2477 52.3988 17.1248 52.4571C17.0018 52.5155 16.892 52.5983 16.8022 52.7005C16.7124 52.8028 16.6443 52.9223 16.6023 53.0517C16.5603 53.1812 16.5451 53.3178 16.5577 53.4533C16.5703 53.5889 16.6105 53.7204 16.6757 53.8398C16.7409 53.9593 16.8299 54.0642 16.937 54.148C21.0522 57.7405 25.9108 60.3785 31.165 61.873Z" fill="#0578E2"/>
    <path d="M5.56903 15.053C5.43882 15.0356 5.30644 15.044 5.17947 15.0777C5.0525 15.1115 4.93343 15.1699 4.82904 15.2497C4.72466 15.3294 4.63702 15.429 4.57113 15.5426C4.50524 15.6563 4.46239 15.7818 4.44503 15.912C3.74003 21.183 2.90003 34.7 10.3 46.381C10.3703 46.492 10.4617 46.5881 10.5691 46.6637C10.6765 46.7393 10.7977 46.7931 10.9258 46.8218C11.054 46.8506 11.1865 46.8539 11.3159 46.8315C11.4453 46.809 11.5691 46.7613 11.68 46.691C11.791 46.6208 11.887 46.5294 11.9627 46.422C12.0383 46.3146 12.0921 46.1934 12.1208 46.0652C12.1496 45.9371 12.1529 45.8045 12.1304 45.6751C12.108 45.5457 12.0603 45.422 11.99 45.311C4.94003 34.187 5.75103 21.231 6.42603 16.177C6.46129 15.9144 6.39083 15.6484 6.23014 15.4377C6.06945 15.2269 5.83166 15.0886 5.56903 15.053Z" fill="#0578E2"/>
    <path d="M13.039 48.5469C12.9366 48.6293 12.8514 48.731 12.7883 48.8463C12.7252 48.9616 12.6854 49.0882 12.6713 49.2189C12.6572 49.3496 12.669 49.4818 12.706 49.6079C12.743 49.734 12.8045 49.8516 12.887 49.9539C13.187 50.3259 13.508 50.6979 13.838 51.0699C13.9251 51.1684 14.0308 51.2488 14.149 51.3064C14.2672 51.3641 14.3956 51.3979 14.5268 51.4059C14.6581 51.4139 14.7896 51.396 14.914 51.3532C15.0383 51.3104 15.153 51.2435 15.2515 51.1564C15.35 51.0693 15.4304 50.9636 15.488 50.8454C15.5457 50.7272 15.5795 50.5988 15.5875 50.4676C15.5955 50.3363 15.5776 50.2048 15.5348 50.0804C15.492 49.9561 15.4251 49.8414 15.338 49.7429C15.029 49.3939 14.729 49.0429 14.449 48.6989C14.3666 48.596 14.2647 48.5105 14.1491 48.4471C14.0336 48.3837 13.9066 48.3439 13.7756 48.3297C13.6446 48.3156 13.512 48.3275 13.3856 48.3648C13.2592 48.4021 13.1414 48.464 13.039 48.5469Z" fill="#0578E2"/>
    <path d="M56.988 12.619C53.3547 11.9866 49.795 10.9865 46.364 9.63401C41.876 7.8577 37.6442 5.49229 33.78 2.60001C33.2664 2.21375 32.6412 2.00488 31.9985 2.00488C31.3559 2.00488 30.7306 2.21375 30.217 2.60001C28.2919 4.04019 26.2742 5.35234 24.177 6.52801C24.0622 6.59212 23.9611 6.67825 23.8796 6.78147C23.7981 6.88469 23.7378 7.00298 23.702 7.12956C23.6663 7.25614 23.6559 7.38852 23.6714 7.51913C23.6869 7.64973 23.728 7.776 23.7924 7.89069C23.8568 8.00537 23.9432 8.10624 24.0466 8.1875C24.15 8.26876 24.2684 8.32882 24.3951 8.36424C24.5218 8.39966 24.6542 8.40975 24.7848 8.39392C24.9153 8.37809 25.0415 8.33667 25.156 8.27201C27.3312 7.05036 29.4237 5.68709 31.42 4.19101C31.586 4.06338 31.7896 3.99418 31.999 3.99418C32.2084 3.99418 32.412 4.06338 32.578 4.19101C36.5856 7.1926 40.9748 9.64748 45.63 11.491C49.1905 12.8953 52.8845 13.934 56.655 14.591C56.8602 14.6258 57.0487 14.7257 57.1928 14.8759C57.3368 15.026 57.4288 15.2186 57.455 15.425C58.098 19.651 59.077 30.613 54.285 41.089C54.2279 41.2087 54.1951 41.3386 54.1887 41.4711C54.1822 41.6036 54.2022 41.736 54.2474 41.8607C54.2926 41.9854 54.3622 42.0999 54.4521 42.1974C54.5419 42.295 54.6503 42.3737 54.7709 42.4289C54.8915 42.4842 55.0219 42.5149 55.1545 42.5192C55.287 42.5236 55.4191 42.5016 55.5431 42.4544C55.6671 42.4072 55.7804 42.3359 55.8766 42.2445C55.9727 42.1531 56.0497 42.0435 56.103 41.922C61.12 30.955 60.103 19.528 59.433 15.122C59.3423 14.4999 59.0569 13.9226 58.6176 13.4729C58.1783 13.0232 57.6078 12.7243 56.988 12.619Z" fill="#0578E2"/>
    <path d="M31.035 54.8271C31.3442 54.9405 31.6707 54.9991 32 55.0001C32.3241 54.9997 32.6457 54.9425 32.95 54.8311C34.3296 54.3458 35.6747 53.7674 36.976 53.1001C37.0928 53.0399 37.1966 52.9574 37.2815 52.8571C37.3665 52.7568 37.4308 52.6408 37.4708 52.5157C37.5109 52.3906 37.5259 52.2588 37.5151 52.1279C37.5042 51.9969 37.4677 51.8694 37.4075 51.7526C37.3474 51.6358 37.2648 51.532 37.1645 51.4471C37.0643 51.3622 36.9483 51.2978 36.8231 51.2578C36.698 51.2177 36.5662 51.2027 36.4353 51.2135C36.3043 51.2244 36.1768 51.2609 36.06 51.3211C34.8369 51.95 33.5723 52.4946 32.275 52.9511C32.0934 53.0221 31.8917 53.0221 31.71 52.9511C27.2267 51.4152 23.1971 48.7855 19.986 45.3001C12.438 37.0691 11.773 26.0491 12.047 20.2341C12.0564 20.0791 12.0955 19.9274 12.162 19.7871C12.2589 19.551 12.2618 19.2869 12.1703 19.0487C12.0788 18.8105 11.8996 18.6164 11.6696 18.5059C11.4396 18.3955 11.176 18.3772 10.933 18.4548C10.6899 18.5323 10.4856 18.6999 10.362 18.9231C10.1837 19.2997 10.0795 19.7071 10.055 20.1231C9.76502 26.2701 10.479 37.8921 18.516 46.6561C21.9452 50.3778 26.2478 53.1861 31.035 54.8271Z" fill="#0578E2"/>
    <path d="M50.374 37C50.4837 37.0409 50.5999 37.0619 50.717 37.062C50.922 37.0619 51.122 36.9989 51.2899 36.8813C51.4579 36.7638 51.5857 36.5975 51.656 36.405C53.4778 31.1782 54.2559 25.6445 53.946 20.118C53.9267 19.7138 53.8275 19.3175 53.6542 18.9519C53.4808 18.5863 53.2367 18.2587 52.936 17.988C52.8407 17.8894 52.7261 17.8115 52.5995 17.7591C52.4728 17.7067 52.3367 17.6809 52.1996 17.6833C52.0625 17.6857 51.9274 17.7162 51.8027 17.773C51.6779 17.8298 51.5661 17.9117 51.4743 18.0135C51.3825 18.1154 51.3127 18.235 51.269 18.3649C51.2254 18.4949 51.209 18.6325 51.2208 18.7691C51.2326 18.9056 51.2723 19.0383 51.3375 19.1589C51.4028 19.2795 51.4921 19.3854 51.6 19.47C51.7046 19.5649 51.7894 19.6796 51.8495 19.8075C51.9096 19.9354 51.9437 20.0738 51.95 20.215C52.2476 25.4738 51.5107 30.7399 49.781 35.715C49.7354 35.8383 49.7147 35.9694 49.7198 36.1007C49.725 36.232 49.756 36.3611 49.8111 36.4804C49.8662 36.5998 49.9442 36.7071 50.0408 36.7962C50.1374 36.8854 50.2506 36.9546 50.374 37Z" fill="#0578E2"/>
    <path d="M31.611 11.0821C31.7524 11.0178 31.9076 10.9902 32.0624 11.0017C32.2173 11.0133 32.3667 11.0636 32.497 11.1481C35.3754 13.006 38.4055 14.6177 41.555 15.9661C41.7969 16.0606 42.0662 16.0574 42.3058 15.9569C42.5453 15.8565 42.7364 15.6667 42.8385 15.4279C42.9407 15.1891 42.9459 14.9198 42.853 14.6772C42.7601 14.4346 42.5765 14.2377 42.341 14.1281C39.295 12.8227 36.3643 11.2632 33.58 9.46608C33.1716 9.20322 32.7043 9.04603 32.22 9.00868C31.7358 8.97132 31.2499 9.05496 30.806 9.25208C30.5771 9.36688 30.4009 9.56513 30.3138 9.80597C30.2268 10.0468 30.2354 10.3119 30.338 10.5465C30.4406 10.7812 30.6293 10.9675 30.8652 11.0672C31.1011 11.1668 31.3663 11.1722 31.606 11.0821H31.611Z" fill="#0578E2"/>
    <path d="M47.49 18.175C47.5834 18.2031 47.6805 18.2173 47.778 18.217C48.018 18.2168 48.25 18.1303 48.4315 17.9732C48.6131 17.8162 48.732 17.5991 48.7667 17.3615C48.8014 17.124 48.7495 16.8819 48.6205 16.6795C48.4915 16.4771 48.294 16.3278 48.064 16.259C47.581 16.114 47.099 15.95 46.616 15.776C46.3664 15.6861 46.0914 15.699 45.8513 15.8119C45.6113 15.9248 45.4259 16.1284 45.336 16.378C45.2461 16.6276 45.259 16.9026 45.3719 17.1427C45.4848 17.3827 45.6884 17.5681 45.938 17.658C46.456 17.844 46.973 18.02 47.49 18.175Z" fill="#0578E2"/>
    <path d="M26.611 29.481C26.0166 28.8986 25.2176 28.5725 24.3855 28.5725C23.5534 28.5725 22.7544 28.8986 22.16 29.481L20.908 30.758C20.3254 31.3589 19.9996 32.163 19.9996 33C19.9996 33.837 20.3254 34.6411 20.908 35.242L28.57 43.061C28.8594 43.3581 29.2054 43.5943 29.5875 43.7555C29.9697 43.9168 30.3802 43.9998 30.795 43.9998C31.2098 43.9998 31.6203 43.9168 32.0025 43.7555C32.3846 43.5943 32.7306 43.3581 33.02 43.061L47.092 28.7C47.6746 28.0991 48.0004 27.295 48.0004 26.458C48.0004 25.621 47.6746 24.8169 47.092 24.216L45.84 22.939C45.5513 22.6412 45.2056 22.4047 44.8235 22.2433C44.4414 22.082 44.0308 21.9993 43.616 22C43.201 21.9992 42.79 22.0819 42.4076 22.2433C42.0251 22.4046 41.6791 22.6412 41.39 22.939L31.59 32.939C31.3781 33.1486 31.0921 33.2661 30.794 33.2661C30.4959 33.2661 30.2099 33.1486 29.998 32.939L26.611 29.481ZM33.02 34.338L42.82 24.338C42.9232 24.231 43.047 24.146 43.1838 24.0879C43.3207 24.0297 43.4678 23.9998 43.6165 23.9998C43.7652 23.9998 43.9123 24.0297 44.0492 24.0879C44.186 24.146 44.3097 24.231 44.413 24.338L45.665 25.616C45.8839 25.8416 46.0064 26.1436 46.0064 26.458C46.0064 26.7724 45.8839 27.0744 45.665 27.3L31.591 41.662C31.3791 41.8716 31.0931 41.9891 30.795 41.9891C30.4969 41.9891 30.2109 41.8716 29.999 41.662L22.337 33.842C22.1181 33.6164 21.9956 33.3144 21.9956 33C21.9956 32.6856 22.1181 32.3836 22.337 32.158L23.589 30.88C23.8012 30.6706 24.0874 30.5532 24.3855 30.5532C24.6836 30.5532 24.9698 30.6706 25.182 30.88L28.57 34.338C29.1643 34.9201 29.9631 35.246 30.795 35.246C31.6269 35.246 32.4257 34.9201 33.02 34.338Z" fill="#0578E2"/>
    <path d="M9 13.9999C9.00011 14.2336 9.0821 14.4599 9.23171 14.6395C9.38133 14.8191 9.58912 14.9406 9.819 14.9829C16.16 16.1509 16.849 16.8399 18.019 23.1829C18.0618 23.4123 18.1836 23.6195 18.3631 23.7686C18.5426 23.9177 18.7686 23.9993 19.002 23.9993C19.2354 23.9993 19.4614 23.9177 19.6409 23.7686C19.8204 23.6195 19.9422 23.4123 19.985 23.1829C21.153 16.8419 21.842 16.1529 28.185 14.9829C28.4144 14.94 28.6216 14.8183 28.7707 14.6388C28.9198 14.4593 29.0014 14.2332 29.0014 13.9999C29.0014 13.7665 28.9198 13.5405 28.7707 13.361C28.6216 13.1815 28.4144 13.0597 28.185 13.0169C21.844 11.8489 21.155 11.1599 19.985 4.81688C19.9422 4.58749 19.8204 4.3803 19.6409 4.2312C19.4614 4.0821 19.2354 4.00049 19.002 4.00049C18.7686 4.00049 18.5426 4.0821 18.3631 4.2312C18.1836 4.3803 18.0618 4.58749 18.019 4.81688C16.851 11.1579 16.162 11.8469 9.819 13.0169C9.58912 13.0592 9.38133 13.1807 9.23171 13.3603C9.0821 13.5398 9.00011 13.7661 9 13.9999ZM19 9.29088C19.297 10.4228 19.8896 11.4554 20.717 12.2829C21.5445 13.1103 22.5771 13.7029 23.709 13.9999C22.5771 14.2969 21.5445 14.8894 20.717 15.7169C19.8896 16.5444 19.297 17.577 19 18.7089C18.703 17.577 18.1104 16.5444 17.283 15.7169C16.4555 14.8894 15.4229 14.2969 14.291 13.9999C15.4229 13.7029 16.4555 13.1103 17.283 12.2829C18.1104 11.4554 18.703 10.4228 19 9.29088Z" fill="#0578E2"/>
    <path d="M59.181 49.0169C52.84 47.8489 52.151 47.1599 50.981 40.8169C50.9381 40.5875 50.8164 40.3803 50.6369 40.2312C50.4574 40.0821 50.2314 40.0005 49.998 40.0005C49.7646 40.0005 49.5386 40.0821 49.3591 40.2312C49.1796 40.3803 49.0578 40.5875 49.015 40.8169C47.847 47.1579 47.158 47.8469 40.815 49.0169C40.5856 49.0597 40.3784 49.1815 40.2293 49.361C40.0802 49.5405 39.9986 49.7665 39.9986 49.9999C39.9986 50.2332 40.0802 50.4593 40.2293 50.6388C40.3784 50.8183 40.5856 50.94 40.815 50.9829C47.156 52.1509 47.845 52.8399 49.015 59.1829C49.0578 59.4123 49.1796 59.6195 49.3591 59.7686C49.5386 59.9177 49.7646 59.9993 49.998 59.9993C50.2314 59.9993 50.4574 59.9177 50.6369 59.7686C50.8164 59.6195 50.9381 59.4123 50.981 59.1829C52.149 52.8419 52.838 52.1529 59.181 50.9829C59.4104 50.94 59.6176 50.8183 59.7667 50.6388C59.9158 50.4593 59.9974 50.2332 59.9974 49.9999C59.9974 49.7665 59.9158 49.5405 59.7667 49.361C59.6176 49.1815 59.4104 49.0597 59.181 49.0169ZM50 54.7089C49.703 53.577 49.1104 52.5444 48.283 51.7169C47.4555 50.8894 46.4229 50.2969 45.291 49.9999C46.4229 49.7029 47.4555 49.1103 48.283 48.2829C49.1104 47.4554 49.703 46.4228 50 45.2909C50.297 46.4228 50.8896 47.4554 51.717 48.2829C52.5445 49.1103 53.5771 49.7029 54.709 49.9999C53.5771 50.2969 52.5445 50.8894 51.717 51.7169C50.8896 52.5444 50.297 53.577 50 54.7089Z" fill="#0578E2"/>
</svg>
