<svg viewBox="0 0 64 64" fill="none" xmlns="http://www.w3.org/2000/svg">
    <path d="M16.312 43.057C16.2249 43.1555 16.1581 43.2702 16.1154 43.3945C16.0726 43.5188 16.0548 43.6503 16.0629 43.7815C16.0709 43.9127 16.1048 44.0411 16.1625 44.1592C16.2201 44.2773 16.3005 44.3829 16.399 44.47C16.4975 44.5571 16.6122 44.6239 16.7365 44.6666C16.8608 44.7094 16.9923 44.7272 17.1235 44.7191C17.2547 44.7111 17.3831 44.6772 17.5012 44.6195C17.6193 44.5619 17.7249 44.4815 17.812 44.383C19.53 42.4466 21.6261 40.8821 23.9712 39.7858C26.3163 38.6895 28.8609 38.0846 31.4485 38.0083C34.036 37.9319 36.6119 38.3858 39.0175 39.3419C41.4232 40.298 43.6078 41.7362 45.437 43.568C45.694 43.825 45.951 44.101 46.198 44.377C46.3757 44.5717 46.623 44.6885 46.8863 44.7018C47.1496 44.7151 47.4075 44.6239 47.6039 44.4481C47.8002 44.2723 47.9193 44.026 47.935 43.7629C47.9508 43.4997 47.862 43.241 47.688 43.043C47.416 42.743 47.132 42.435 46.85 42.153C44.8282 40.1282 42.4135 38.5384 39.7545 37.4815C37.0954 36.4246 34.2483 35.9229 31.3881 36.0072C28.5279 36.0915 25.7153 36.76 23.1231 37.9717C20.5309 39.1834 18.2141 40.9126 16.315 43.053L16.312 43.057Z" fill="#0578E2"/>
    <path d="M32 4.00005C26.3457 3.9897 20.8222 5.70089 16.164 8.90605C15.9453 9.05669 15.7955 9.28803 15.7474 9.54917C15.6993 9.81032 15.7569 10.0799 15.9075 10.2985C16.0582 10.5172 16.2895 10.6671 16.5506 10.7152C16.8118 10.7633 17.0813 10.7057 17.3 10.555C22.6446 6.8925 29.1645 5.35806 35.5816 6.25246C41.9987 7.14686 47.8504 10.4056 51.9898 15.39C56.1293 20.3744 58.258 26.7251 57.9587 33.1973C57.6594 39.6696 54.9536 45.7967 50.3719 50.3778C45.7901 54.9589 39.6626 57.6637 33.1903 57.962C26.718 58.2604 20.3677 56.1308 15.3839 51.9906C10.4001 47.8504 7.14217 41.9982 6.24872 35.581C5.35527 29.1637 6.89068 22.6441 10.554 17.3C10.63 17.1919 10.6838 17.0698 10.7122 16.9407C10.7407 16.8116 10.7433 16.6782 10.7199 16.5481C10.6965 16.418 10.6475 16.2939 10.5759 16.1828C10.5042 16.0718 10.4112 15.9761 10.3023 15.9012C10.1933 15.8263 10.0707 15.7738 9.94132 15.7466C9.81198 15.7194 9.67853 15.7182 9.54869 15.7429C9.41885 15.7676 9.2952 15.8178 9.18489 15.8906C9.07458 15.9634 8.97979 16.0574 8.90602 16.167C5.36817 21.3273 3.66052 27.5237 4.05551 33.7678C4.45051 40.0118 6.9254 45.9437 11.0853 50.617C15.2452 55.2902 20.8505 58.4356 27.0067 59.5513C33.163 60.6669 39.5155 59.6886 45.0509 56.7723C50.5862 53.8561 54.9853 49.1699 57.5463 43.4616C60.1074 37.7532 60.6828 31.3516 59.1808 25.278C57.6788 19.2045 54.1859 13.8089 49.2593 9.95229C44.3328 6.09566 38.2566 4.00013 32 4.00005Z" fill="#0578E2"/>
    <path d="M13.157 14.1001C13.457 13.7721 13.767 13.4621 14.095 13.1611C14.1971 13.0739 14.2806 12.9671 14.3405 12.8469C14.4004 12.7268 14.4355 12.5958 14.4437 12.4618C14.4519 12.3279 14.4331 12.1936 14.3883 12.067C14.3435 11.9405 14.2737 11.8242 14.183 11.7252C14.0924 11.6262 13.9827 11.5465 13.8606 11.4908C13.7384 11.4351 13.6063 11.4045 13.4721 11.401C13.3379 11.3974 13.2044 11.4209 13.0795 11.4701C12.9545 11.5192 12.8408 11.593 12.745 11.6871C12.373 12.0261 12.023 12.3771 11.683 12.7481C11.5037 12.9436 11.4094 13.2022 11.4209 13.4672C11.4323 13.7322 11.5485 13.9818 11.744 14.1611C11.9395 14.3404 12.1981 14.4347 12.4631 14.4232C12.7281 14.4118 12.9777 14.2956 13.157 14.1001Z" fill="#0578E2"/>
    <path d="M47.75 49.7499C48.0112 49.7509 48.2625 49.6497 48.45 49.4679C48.796 49.1309 49.133 48.7939 49.47 48.4459C49.5674 48.353 49.6451 48.2415 49.6983 48.1179C49.7516 47.9943 49.7794 47.8612 49.78 47.7266C49.7806 47.5921 49.754 47.4588 49.7019 47.3347C49.6497 47.2106 49.5731 47.0984 49.4765 47.0046C49.3799 46.9109 49.2654 46.8376 49.1399 46.7892C49.0143 46.7407 48.8803 46.7182 48.7458 46.7228C48.6113 46.7274 48.4791 46.7591 48.3571 46.816C48.2352 46.8729 48.126 46.9538 48.036 47.0539C47.712 47.3859 47.389 47.7089 47.056 48.0319C46.9128 48.1707 46.8144 48.3492 46.7734 48.5444C46.7324 48.7396 46.7507 48.9426 46.826 49.1273C46.9013 49.312 47.03 49.4699 47.1958 49.5809C47.3615 49.6918 47.5566 49.7507 47.756 49.7499H47.75Z" fill="#0578E2"/>
    <path d="M50.841 45.2229C51.064 45.3661 51.3347 45.4149 51.5936 45.3587C51.8525 45.3024 52.0785 45.1457 52.222 44.9229C55.4075 39.9381 56.6397 33.9525 55.6821 28.1148C54.7246 22.2771 51.6448 16.9988 47.0338 13.2928C42.4229 9.58681 36.6056 7.71434 30.6986 8.03477C24.7916 8.3552 19.2111 10.846 15.0281 15.029C10.845 19.212 8.35429 24.7925 8.03385 30.6995C7.71342 36.6065 9.58589 42.4238 13.2919 47.0347C16.9978 51.6457 22.2762 54.7255 28.1139 55.683C33.9516 56.6406 39.9372 55.4084 44.922 52.2229C45.1456 52.08 45.3032 51.8541 45.3602 51.5949C45.4173 51.3357 45.369 51.0645 45.226 50.8409C45.0831 50.6174 44.8572 50.4597 44.598 50.4027C44.3388 50.3457 44.0676 50.394 43.844 50.5369C39.2743 53.4554 33.7877 54.5835 28.4372 53.7047C23.0867 52.826 18.2492 50.0023 14.8529 45.7755C11.4567 41.5487 9.74096 36.2166 10.035 30.8024C10.3291 25.3882 12.6122 20.2733 16.4463 16.4392C20.2804 12.6052 25.3953 10.322 30.8095 10.028C36.2237 9.73388 41.5558 11.4496 45.7826 14.8458C50.0094 18.2421 52.8331 23.0796 53.7118 28.4301C54.5906 33.7806 53.4625 39.2672 50.544 43.8369C50.4722 43.9473 50.4229 44.0709 50.399 44.2004C50.3751 44.3299 50.3769 44.4629 50.4045 44.5916C50.4321 44.7204 50.4849 44.8425 50.5598 44.9508C50.6347 45.0592 50.7303 45.1516 50.841 45.2229Z" fill="#0578E2"/>
    <path d="M41 25V23C41 20.6131 40.0518 18.3239 38.364 16.636C36.6761 14.9482 34.3869 14 32 14C29.6131 14 27.3239 14.9482 25.636 16.636C23.9482 18.3239 23 20.6131 23 23V25C23 27.3869 23.9482 29.6761 25.636 31.364C27.3239 33.0518 29.6131 34 32 34C34.3869 34 36.6761 33.0518 38.364 31.364C40.0518 29.6761 41 27.3869 41 25ZM25 25V23C25 21.1435 25.7375 19.363 27.0503 18.0503C28.363 16.7375 30.1435 16 32 16C33.8565 16 35.637 16.7375 36.9497 18.0503C38.2625 19.363 39 21.1435 39 23V25C39 26.8565 38.2625 28.637 36.9497 29.9497C35.637 31.2625 33.8565 32 32 32C30.1435 32 28.363 31.2625 27.0503 29.9497C25.7375 28.637 25 26.8565 25 25Z" fill="#0578E2"/>
</svg>
