<svg viewBox="0 0 80 64" fill="none" xmlns="http://www.w3.org/2000/svg">
    <path d="M19.75 56C20.0815 56 20.3995 55.8946 20.6339 55.7071C20.8683 55.5196 21 55.2652 21 55C21 54.7348 20.8683 54.4804 20.6339 54.2929C20.3995 54.1054 20.0815 54 19.75 54H17.25C16.9185 54 16.6005 54.1054 16.3661 54.2929C16.1317 54.4804 16 54.7348 16 55C16 55.2652 16.1317 55.5196 16.3661 55.7071C16.6005 55.8946 16.9185 56 17.25 56H19.75Z" fill="#0578E2"/>
    <path d="M72.4 46.4H71.2V28.4C71.2 28.0817 71.0736 27.7765 70.8485 27.5515C70.6235 27.3264 70.3183 27.2 70 27.2C69.6817 27.2 69.3765 27.3264 69.1515 27.5515C68.9264 27.7765 68.8 28.0817 68.8 28.4V46.4H51.796C51.3216 46.3988 50.8517 46.4918 50.4135 46.6737C49.9753 46.8556 49.5777 47.1228 49.2436 47.4596L48.2596 48.4436C48.148 48.5574 48.0149 48.6479 47.868 48.7097C47.7211 48.7715 47.5634 48.8034 47.404 48.8036H31.396C31.2366 48.8034 31.0789 48.7715 30.932 48.7097C30.7851 48.6479 30.652 48.5574 30.5404 48.4436L29.5564 47.4596C29.2223 47.1228 28.8247 46.8556 28.3865 46.6737C27.9483 46.4918 27.4784 46.3988 27.004 46.4H11.2V14C11.2 13.0452 11.5793 12.1295 12.2544 11.4544C12.9295 10.7793 13.8452 10.4 14.8 10.4H65.2C66.1548 10.4 67.0705 10.7793 67.7456 11.4544C68.4207 12.1295 68.8 13.0452 68.8 14V16.4C68.8 16.7183 68.9264 17.0235 69.1515 17.2485C69.3765 17.4736 69.6817 17.6 70 17.6C70.3183 17.6 70.6235 17.4736 70.8485 17.2485C71.0736 17.0235 71.2 16.7183 71.2 16.4V14C71.1981 12.4093 70.5653 10.8843 69.4405 9.75946C68.3157 8.63466 66.7907 8.00191 65.2 8H14.8C13.2093 8.00191 11.6843 8.63466 10.5595 9.75946C9.43466 10.8843 8.80191 12.4093 8.8 14V46.4H7.6C6.64522 46.4 5.72955 46.7793 5.05442 47.4544C4.37928 48.1296 4 49.0452 4 50V52.4C4 53.3548 4.37928 54.2705 5.05442 54.9456C5.72955 55.6207 6.64522 56 7.6 56H12.4C12.7183 56 13.0235 55.8736 13.2485 55.6485C13.4736 55.4235 13.6 55.1183 13.6 54.8C13.6 54.4817 13.4736 54.1765 13.2485 53.9515C13.0235 53.7264 12.7183 53.6 12.4 53.6H7.6C7.28174 53.6 6.97652 53.4736 6.75147 53.2485C6.52643 53.0235 6.4 52.7183 6.4 52.4V50C6.4 49.6817 6.52643 49.3765 6.75147 49.1515C6.97652 48.9264 7.28174 48.8 7.6 48.8H27.004C27.1634 48.8002 27.3211 48.8321 27.468 48.8939C27.6149 48.9557 27.748 49.0462 27.8596 49.16L28.8436 50.144C29.178 50.4802 29.5758 50.7467 30.0139 50.9279C30.4521 51.1092 30.9218 51.2017 31.396 51.2H47.404C47.8784 51.2012 48.3483 51.1082 48.7865 50.9263C49.2247 50.7444 49.6223 50.4772 49.9564 50.1404L50.9404 49.1564C51.052 49.0426 51.1851 48.9521 51.332 48.8903C51.4789 48.8285 51.6366 48.7966 51.796 48.7964H72.4C72.7183 48.7964 73.0235 48.9228 73.2485 49.1479C73.4736 49.3729 73.6 49.6781 73.6 49.9964V52.3964C73.6 52.7147 73.4736 53.0199 73.2485 53.2449C73.0235 53.47 72.7183 53.5964 72.4 53.5964H24.4C24.0817 53.5964 23.7765 53.7228 23.5515 53.9479C23.3264 54.1729 23.2 54.4781 23.2 54.7964C23.2 55.1147 23.3264 55.4199 23.5515 55.6449C23.7765 55.87 24.0817 55.9964 24.4 55.9964H72.4C73.3548 55.9964 74.2705 55.6171 74.9456 54.942C75.6207 54.2669 76 53.3512 76 52.3964V50C76 49.0452 75.6207 48.1296 74.9456 47.4544C74.2705 46.7793 73.3548 46.4 72.4 46.4Z" fill="#0578E2"/>
    <path d="M70 20C69.7348 20 69.4804 20.1317 69.2929 20.3661C69.1054 20.6005 69 20.9185 69 21.25V23.75C69 24.0815 69.1054 24.3995 69.2929 24.6339C69.4804 24.8683 69.7348 25 70 25C70.2652 25 70.5196 24.8683 70.7071 24.6339C70.8946 24.3995 71 24.0815 71 23.75V21.25C71 20.9185 70.8946 20.6005 70.7071 20.3661C70.5196 20.1317 70.2652 20 70 20Z" fill="#0578E2"/>
    <path d="M21.8031 42H34.1973C34.7231 42.0002 35.2433 41.8967 35.7256 41.6958C36.2079 41.495 36.6421 41.2011 37.0012 40.8324C37.3507 40.471 37.6189 40.0442 37.7891 39.5789C37.9592 39.1135 38.0276 38.6195 37.99 38.1276L36.8424 24.9984C36.7932 24.3977 36.5089 23.8371 36.0468 23.4292C35.5846 23.0214 34.9788 22.7966 34.3511 22.8H32.9998V21.6C32.9998 20.6452 32.6047 19.7295 31.9014 19.0544C31.1981 18.3793 30.2442 18 29.2496 18H26.7495C25.7549 18 24.801 18.3793 24.0978 19.0544C23.3945 19.7295 22.9994 20.6452 22.9994 21.6V22.8H21.6493C21.0214 22.7966 20.4154 23.0216 19.9532 23.4297C19.491 23.8377 19.2069 24.3986 19.158 24.9996L18.0092 38.142C17.9734 38.6316 18.0428 39.1231 18.2131 39.5859C18.3834 40.0487 18.651 40.473 18.9992 40.8324C19.3582 41.2012 19.7923 41.4951 20.2747 41.696C20.757 41.8969 21.2773 42.0003 21.8031 42ZM25.4995 21.6C25.4995 21.2817 25.6312 20.9765 25.8656 20.7515C26.1 20.5264 26.418 20.4 26.7495 20.4H29.2496C29.5811 20.4 29.8991 20.5264 30.1335 20.7515C30.368 20.9765 30.4997 21.2817 30.4997 21.6V22.8H25.4995V21.6ZM21.6493 25.2H22.9994V27.6C22.9994 27.9183 23.1311 28.2235 23.3655 28.4485C23.5999 28.6736 23.9179 28.8 24.2494 28.8C24.5809 28.8 24.8989 28.6736 25.1333 28.4485C25.3678 28.2235 25.4995 27.9183 25.4995 27.6V25.2H30.4997V27.6C30.4997 27.9183 30.6314 28.2235 30.8658 28.4485C31.1002 28.6736 31.4182 28.8 31.7497 28.8C32.0812 28.8 32.3992 28.6736 32.6336 28.4485C32.8681 28.2235 32.9998 27.9183 32.9998 27.6V25.2H34.3523L35.4999 38.316C35.5119 38.4769 35.4888 38.6384 35.4322 38.7902C35.3756 38.9421 35.2867 39.081 35.1711 39.198C35.0471 39.3263 34.8965 39.4284 34.7291 39.4976C34.5616 39.5669 34.3809 39.6017 34.1986 39.6H21.8031C21.6207 39.6017 21.44 39.5669 21.2726 39.4976C21.1051 39.4284 20.9545 39.3263 20.8305 39.198C20.7158 39.083 20.6271 38.9465 20.57 38.7969C20.513 38.6474 20.4889 38.4881 20.4993 38.3292L21.6493 25.2Z" fill="#0578E2"/>
    <path d="M43.2 20H52.8C53.1183 20 53.4235 19.8946 53.6485 19.7071C53.8736 19.5196 54 19.2652 54 19C54 18.7348 53.8736 18.4804 53.6485 18.2929C53.4235 18.1054 53.1183 18 52.8 18H43.2C42.8817 18 42.5765 18.1054 42.3515 18.2929C42.1264 18.4804 42 18.7348 42 19C42 19.2652 42.1264 19.5196 42.3515 19.7071C42.5765 19.8946 42.8817 20 43.2 20Z" fill="#0578E2"/>
    <path d="M63 26C63 25.7348 62.8699 25.4804 62.6382 25.2929C62.4065 25.1054 62.0923 25 61.7647 25H43.2353C42.9077 25 42.5935 25.1054 42.3618 25.2929C42.1301 25.4804 42 25.7348 42 26C42 26.2652 42.1301 26.5196 42.3618 26.7071C42.5935 26.8946 42.9077 27 43.2353 27H61.7647C62.0923 27 62.4065 26.8946 62.6382 26.7071C62.8699 26.5196 63 26.2652 63 26Z" fill="#0578E2"/>
    <path d="M43.25 32C42.9185 32 42.6005 32.1054 42.3661 32.2929C42.1317 32.4804 42 32.7348 42 33C42 33.2652 42.1317 33.5196 42.3661 33.7071C42.6005 33.8946 42.9185 34 43.25 34H45.75C46.0815 34 46.3995 33.8946 46.6339 33.7071C46.8683 33.5196 47 33.2652 47 33C47 32.7348 46.8683 32.4804 46.6339 32.2929C46.3995 32.1054 46.0815 32 45.75 32H43.25Z" fill="#0578E2"/>
    <path d="M54.2428 42.7272C54.3927 43.104 54.6526 43.4269 54.9886 43.6539C55.3246 43.881 55.7212 44.0015 56.1267 44C56.2274 43.9995 56.328 43.9921 56.4276 43.9778C56.8802 43.9185 57.2995 43.708 57.6173 43.3804C57.9352 43.0527 58.1329 42.6272 58.1785 42.173V42.1287L58.441 38.434L62.1737 38.168C62.6267 38.1179 63.0501 37.9184 63.3771 37.6009C63.7042 37.2835 63.9162 36.8662 63.9799 36.4149C64.0435 35.9635 63.9551 35.5039 63.7286 35.1084C63.5021 34.7129 63.1504 34.404 62.729 34.2306L52.8396 30.1567C52.4643 30.001 52.0514 29.9602 51.653 30.0394C51.2545 30.1185 50.8885 30.3141 50.6013 30.6014C50.3141 30.8887 50.1185 31.2547 50.0394 31.6532C49.9602 32.0517 50.001 32.4647 50.1566 32.8399L54.2428 42.7272ZM60.7448 35.9315L57.2733 36.18C56.9935 36.2001 56.7302 36.3203 56.5319 36.5187C56.3335 36.7172 56.2132 36.9804 56.1932 37.2603L55.9436 40.7334L52.5794 32.5669L60.7448 35.9315Z" fill="#0578E2"/>
    <path d="M21 14C21 13.7348 20.8683 13.4804 20.6339 13.2929C20.3995 13.1054 20.0815 13 19.75 13H17.25C16.9185 13 16.6005 13.1054 16.3661 13.2929C16.1317 13.4804 16 13.7348 16 14C16 14.2652 16.1317 14.5196 16.3661 14.7071C16.6005 14.8946 16.9185 15 17.25 15H19.75C20.0815 15 20.3995 14.8946 20.6339 14.7071C20.8683 14.5196 21 14.2652 21 14Z" fill="#0578E2"/>
</svg>
